<svg xmlns="http://www.w3.org/2000/svg" viewBox="0 0 700 400" font-family="JetBrains Mono,Consolas,monospace">
<rect width="700" height="400" fill="#0f1117" rx="8"/>
<text x="350" y="32" text-anchor="middle" fill="#c9cdd6" font-size="15" font-weight="bold">MMA Attention Latency: WMMA vs PTX</text>
<line x1="80" y1="294.600427323413" x2="660" y2="294.600427323413" stroke="#2a2d3a" stroke-dasharray="3,3"/>
<text x="72" y="298.600427323413" text-anchor="end" fill="#8b90a0" font-size="10">0.1</text>
<line x1="80" y1="259.20085464682603" x2="660" y2="259.20085464682603" stroke="#2a2d3a" stroke-dasharray="3,3"/>
<text x="72" y="263.20085464682603" text-anchor="end" fill="#8b90a0" font-size="10">0.2</text>
<line x1="80" y1="223.80128197023907" x2="660" y2="223.80128197023907" stroke="#2a2d3a" stroke-dasharray="3,3"/>
<text x="72" y="227.80128197023907" text-anchor="end" fill="#8b90a0" font-size="10">0.3</text>
<line x1="80" y1="188.40170929365206" x2="660" y2="188.40170929365206" stroke="#2a2d3a" stroke-dasharray="3,3"/>
<text x="72" y="192.40170929365206" text-anchor="end" fill="#8b90a0" font-size="10">0.4</text>
<line x1="80" y1="153.0021366170651" x2="660" y2="153.0021366170651" stroke="#2a2d3a" stroke-dasharray="3,3"/>
<text x="72" y="157.0021366170651" text-anchor="end" fill="#8b90a0" font-size="10">0.5</text>
<line x1="80" y1="117.60256394047812" x2="660" y2="117.60256394047812" stroke="#2a2d3a" stroke-dasharray="3,3"/>
<text x="72" y="121.60256394047812" text-anchor="end" fill="#8b90a0" font-size="10">0.6</text>
<line x1="80" y1="82.20299126389116" x2="660" y2="82.20299126389116" stroke="#2a2d3a" stroke-dasharray="3,3"/>
<text x="72" y="86.20299126389116" text-anchor="end" fill="#8b90a0" font-size="10">0.7</text>
<line x1="80.0" y1="330" x2="80.0" y2="335" stroke="#2a2d3a"/>
<text x="80.0" y="348" text-anchor="middle" fill="#8b90a0" font-size="10">1K</text>
<line x1="208.88888888888889" y1="330" x2="208.88888888888889" y2="335" stroke="#2a2d3a"/>
<text x="208.88888888888889" y="348" text-anchor="middle" fill="#8b90a0" font-size="10">4K</text>
<line x1="337.77777777777777" y1="330" x2="337.77777777777777" y2="335" stroke="#2a2d3a"/>
<text x="337.77777777777777" y="348" text-anchor="middle" fill="#8b90a0" font-size="10">16K</text>
<line x1="466.66666666666663" y1="330" x2="466.66666666666663" y2="335" stroke="#2a2d3a"/>
<text x="466.66666666666663" y="348" text-anchor="middle" fill="#8b90a0" font-size="10">64K</text>
<line x1="531.1111111111111" y1="330" x2="531.1111111111111" y2="335" stroke="#2a2d3a"/>
<text x="531.1111111111111" y="348" text-anchor="middle" fill="#8b90a0" font-size="10">128K</text>
<line x1="595.5555555555555" y1="330" x2="595.5555555555555" y2="335" stroke="#2a2d3a"/>
<text x="595.5555555555555" y="348" text-anchor="middle" fill="#8b90a0" font-size="10">256K</text>
<line x1="660.0" y1="330" x2="660.0" y2="335" stroke="#2a2d3a"/>
<text x="660.0" y="348" text-anchor="middle" fill="#8b90a0" font-size="10">512K</text>
<line x1="80" y1="50" x2="80" y2="330" stroke="#2a2d3a"/>
<line x1="80" y1="330" x2="660" y2="330" stroke="#2a2d3a"/>
<polygon points="80.0,271.59070508363146 208.88888888888889,274.3872713250819 337.77777777777777,274.35187175240526 466.66666666666663,270.56411747601044 531.1111111111111,259.4486516555622 595.5555555555555,160.43604687914836 660.0,86.52173913043478 660.0,241.21787172711987 595.5555555555555,272.5818931185759 531.1111111111111,305.29109827174227 466.66666666666663,312.3002136617065 337.77777777777777,314.4949871676549 208.88888888888889,314.70738460371444 80.0,314.42418802230173" fill="#EE7733" opacity="0.07"/>
<polyline points="80.0,271.59070508363146 208.88888888888889,274.3872713250819 337.77777777777777,274.35187175240526 466.66666666666663,270.56411747601044 531.1111111111111,259.4486516555622 595.5555555555555,160.43604687914836 660.0,86.52173913043478" fill="none" stroke="#4477AA" stroke-width="2.5" stroke-dasharray="8,4"/>
<rect x="76.0" y="267.59070508363146" width="8" height="8" fill="#4477AA" rx="1"/>
<rect x="204.88888888888889" y="270.3872713250819" width="8" height="8" fill="#4477AA" rx="1"/>
<rect x="333.77777777777777" y="270.35187175240526" width="8" height="8" fill="#4477AA" rx="1"/>
<rect x="462.66666666666663" y="266.56411747601044" width="8" height="8" fill="#4477AA" rx="1"/>
<rect x="527.1111111111111" y="255.44865165556217" width="8" height="8" fill="#4477AA" rx="1"/>
<rect x="591.5555555555555" y="156.43604687914836" width="8" height="8" fill="#4477AA" rx="1"/>
<rect x="656.0" y="82.52173913043478" width="8" height="8" fill="#4477AA" rx="1"/>
<polyline points="80.0,314.42418802230173 208.88888888888889,314.70738460371444 337.77777777777777,314.4949871676549 466.66666666666663,312.3002136617065 531.1111111111111,305.29109827174227 595.5555555555555,272.5818931185759 660.0,241.21787172711987" fill="none" stroke="#EE7733" stroke-width="2.5"/>
<circle cx="80.0" cy="314.42418802230173" r="4.5" fill="#EE7733"/>
<circle cx="208.88888888888889" cy="314.70738460371444" r="4.5" fill="#EE7733"/>
<circle cx="337.77777777777777" cy="314.4949871676549" r="4.5" fill="#EE7733"/>
<circle cx="466.66666666666663" cy="312.3002136617065" r="4.5" fill="#EE7733"/>
<circle cx="531.1111111111111" cy="305.29109827174227" r="4.5" fill="#EE7733"/>
<circle cx="595.5555555555555" cy="272.5818931185759" r="4.5" fill="#EE7733"/>
<circle cx="660.0" cy="241.21787172711987" r="4.5" fill="#EE7733"/>
<text x="80.0" y="297.0074465529666" text-anchor="middle" fill="#c9cdd6" font-size="9" opacity="0.6">3.8x</text>
<text x="208.88888888888889" y="298.54732796439816" text-anchor="middle" fill="#c9cdd6" font-size="9" opacity="0.6">3.6x</text>
<text x="337.77777777777777" y="298.4234294600301" text-anchor="middle" fill="#c9cdd6" font-size="9" opacity="0.6">3.6x</text>
<text x="466.66666666666663" y="295.43216556885847" text-anchor="middle" fill="#c9cdd6" font-size="9" opacity="0.6">3.4x</text>
<text x="531.1111111111111" y="286.36987496365225" text-anchor="middle" fill="#c9cdd6" font-size="9" opacity="0.6">2.9x</text>
<text x="595.5555555555555" y="220.50896999886214" text-anchor="middle" fill="#c9cdd6" font-size="9" opacity="0.6">3.0x</text>
<text x="660.0" y="167.86980542877734" text-anchor="middle" fill="#c9cdd6" font-size="9" opacity="0.6">2.7x</text>
<line x1="95" y1="66" x2="115" y2="66" stroke="#4477AA" stroke-width="2" stroke-dasharray="6,3"/>
<rect x="102" y="62" width="7" height="7" fill="#4477AA" rx="1"/>
<text x="121" y="70" fill="#6699CC" font-size="11">WMMA (shared mem)</text>
<line x1="95" y1="84" x2="115" y2="84" stroke="#EE7733" stroke-width="2"/>
<circle cx="105" cy="84" r="4" fill="#EE7733"/>
<text x="121" y="88" fill="#FFAA66" font-size="11">PTX mma (registers)</text>
<text x="350" y="390" text-anchor="middle" fill="#8b90a0" font-size="11">Attention Tiles</text>
<text x="18" y="190" text-anchor="middle" fill="#8b90a0" font-size="11" transform="rotate(-90 18 190)">Latency (ms)</text>
</svg>